<svg xmlns="http://www.w3.org/2000/svg" width="160" height="160" viewBox="0 0 160 160">
  <defs>
    
  </defs>
  <rect width="160" height="160" fill="#FFFBDB"></rect>
  <g fill="#0d0d0d" transform="translate(0, 22) scale(0.625)">
  <polygon points="8,54 152,54 140,72 20,72"></polygon>
  <rect x="18" y="44" width="124" height="10"></rect>
  <rect x="22" y="28" width="28" height="16"></rect>
  <rect x="22" y="24" width="28" height="4" opacity="0.4"></rect>
  <rect x="54" y="22" width="28" height="22"></rect>
  <rect x="54" y="18" width="28" height="4" opacity="0.4"></rect>
  <rect x="86" y="28" width="28" height="16"></rect>
  <rect x="86" y="24" width="28" height="4" opacity="0.4"></rect>
  <rect x="114" y="12" width="20" height="32"></rect>
  <rect x="116" y="8" width="16" height="6" opacity="0.6"></rect>
  <rect x="123" y="2" width="2" height="8"></rect>
  <rect x="4" y="74" width="152" height="3" opacity="0.25"></rect>
  <rect x="0" y="79" width="160" height="2" opacity="0.12"></rect>
</g>
  <text x="80" y="140" class="orb" font-size="28" letter-spacing="5" text-anchor="middle" fill="#0d0d0d">SAS</text>
</svg>